<svg width="40" height="40" viewBox="0 0 40 40" fill="none" xmlns="http://www.w3.org/2000/svg">
<path d="M19.9999 3.19751C10.7204 3.19751 3.19751 10.7205 3.19751 20.0002C3.19751 29.2795 10.7203 36.8024 19.9999 36.8024C29.2795 36.8024 36.8024 29.2795 36.8024 20.0002C36.8024 10.7205 29.2795 3.19751 19.9999 3.19751Z" fill="#EDF3FC"/>
<path opacity="0.08" d="M19.9999 0.078125C9.01492 0.078125 0.078125 9.015 0.078125 20.0002C0.078125 30.9851 9.01492 39.9219 19.9999 39.9219C30.9849 39.9219 39.9219 30.9851 39.9219 20.0002C39.9219 9.015 30.9849 0.078125 19.9999 0.078125ZM19.9999 39.2837C9.36687 39.2837 0.716328 30.6331 0.716328 20.0002C0.716328 9.36703 9.36687 0.716328 19.9999 0.716328C30.6329 0.716328 39.2837 9.36703 39.2837 20.0002C39.2837 30.6331 30.6329 39.2837 19.9999 39.2837Z" fill="#0A020D"/>
<path d="M29.4765 10.5427L29.6454 10.585L29.4765 10.6273C28.4881 10.8749 27.7167 11.6466 27.4691 12.6351L27.4266 12.8037L27.3843 12.6351C27.1367 11.6466 26.3651 10.8749 25.3764 10.6273L25.2082 10.585L25.3764 10.5427C26.3651 10.2951 27.1367 9.52321 27.3843 8.53532L27.4266 8.36688L27.4691 8.53532C27.7167 9.52321 28.4881 10.2951 29.4765 10.5427Z" fill="#5D8EF9"/>
<path d="M33.0162 14.3559L33.1366 14.3861L33.0162 14.4162C32.3111 14.5929 31.7608 15.1434 31.5841 15.8485L31.5538 15.9688L31.5236 15.8485C31.347 15.1434 30.7966 14.593 30.0913 14.4162L29.9713 14.3861L30.0913 14.3559C30.7966 14.1793 31.347 13.6287 31.5236 12.9239L31.5538 12.8037L31.5841 12.9239C31.7608 13.6286 32.311 14.1792 33.0162 14.3559Z" fill="#5D8EF9"/>
<path d="M9.96516 18.8282L10.0716 18.8548L9.96516 18.8815C9.34211 19.0376 8.85579 19.5241 8.69977 20.1471L8.67297 20.2534L8.64625 20.1471C8.49016 19.5241 8.00376 19.0376 7.38055 18.8815L7.27454 18.8548L7.38055 18.8282C8.00383 18.6721 8.49016 18.1855 8.64625 17.5628L8.67297 17.4566L8.69977 17.5628C8.85579 18.1855 9.34204 18.672 9.96516 18.8282Z" fill="#FFBE1B"/>
<path d="M10.3803 24.4395L10.5788 24.4893L10.3803 24.5391C9.21799 24.8303 8.31088 25.7377 8.01971 26.9L7.96971 27.0983L7.91987 26.9C7.6287 25.7377 6.72143 24.8303 5.55877 24.5391L5.36096 24.4893L5.55877 24.4395C6.72143 24.1483 7.6287 23.2407 7.91987 22.079L7.96971 21.8809L8.01971 22.079C8.31088 23.2406 9.21792 24.1483 10.3803 24.4395Z" fill="#FFBE1B"/>
<path d="M29.4212 20C29.4212 25.2033 25.203 29.4212 19.9998 29.4212C14.7967 29.4212 10.5787 25.2033 10.5787 20C10.5787 14.7967 14.7967 10.5788 19.9998 10.5788C25.203 10.5788 29.4212 14.7967 29.4212 20Z" fill="#FFBE1B"/>
<path d="M19.9998 29.4212C22.3465 29.4212 24.4911 28.5613 26.1403 27.142C26.0485 26.2215 25.4124 25.4345 24.5125 25.1635L23.0698 24.7287C23.0698 24.7287 22.596 24.5908 22.5266 24.5676C22.0867 24.4198 21.7471 24.2642 21.6725 24.0317C21.6095 23.8352 21.5774 23.6326 21.5641 23.4384C21.5563 23.4431 21.5482 23.4472 21.5403 23.4519C21.7201 23.346 21.9019 23.2258 22.0869 23.0812C22.8571 22.4791 23.5732 21.7967 23.5732 21.0306C23.5732 20.9346 23.57 20.7809 23.5646 20.5855C23.6191 20.596 23.6765 20.5959 23.73 20.5696C23.9094 20.4819 24.0735 19.7768 24.1339 19.549C24.1937 19.3212 24.2121 19 23.9542 18.7902C23.8902 18.7381 23.8196 18.7213 23.7492 18.7252C23.7567 18.6712 23.7644 18.6155 23.772 18.5573C23.8464 17.9998 24.5824 16.1082 23.5364 14.8348C23.1421 14.3544 22.6492 14.1098 22.1043 14.1766C21.6894 13.6368 20.6399 13.4518 19.6364 13.5859C18.5296 13.7339 17.8882 13.9184 17.0926 14.4575C16.6375 14.7659 15.8382 15.4986 15.7214 16.3966C15.6144 17.2173 15.822 18.1512 15.98 18.7252C15.9107 18.722 15.8414 18.7387 15.7785 18.7901C15.5207 19 15.5391 19.3211 15.5989 19.5489C15.6588 19.7767 15.8232 20.4818 16.0028 20.5695C16.1448 20.6388 16.3136 20.537 16.3782 20.4915C16.3775 20.6068 16.3769 20.7188 16.3769 20.8232C16.3769 21.7316 16.9365 22.3187 17.7665 22.952C17.9807 23.1154 18.2383 23.2809 18.4954 23.4316C18.4825 23.6279 18.4503 23.8329 18.3865 24.0316C18.3411 24.1734 18.1485 24.2998 17.8889 24.4195C17.728 24.4937 16.738 24.802 16.738 24.802L15.4983 25.1687C14.5954 25.4361 13.9553 26.2216 13.8601 27.1427C15.5095 28.5616 17.6538 29.4212 19.9998 29.4212Z" fill="#5932AE"/>
<path d="M32.4132 27.4706L32.6125 27.5206L32.4132 27.5705C31.2463 27.8628 30.3356 28.7738 30.0434 29.9407L29.9932 30.1398L29.9432 29.9407C29.6509 28.7738 28.74 27.8628 27.5727 27.5705L27.3741 27.5206L27.5727 27.4706C28.74 27.1783 29.6509 26.267 29.9432 25.1008L29.9932 24.9019L30.0434 25.1008C30.3356 26.267 31.2463 27.1782 32.4132 27.4706Z" fill="#330D84"/>
</svg>
